<svg width="15" height="16" viewBox="0 0 15 16" fill="none" xmlns="http://www.w3.org/2000/svg">
<path fill-rule="evenodd" clip-rule="evenodd" d="M7.5 16C9.48912 16 11.3968 15.1571 12.8033 13.6569C14.2098 12.1566 15 10.1217 15 8C15 5.87827 14.2098 3.84344 12.8033 2.34315C11.3968 0.842855 9.48912 0 7.5 0C5.51088 0 3.60322 0.842855 2.1967 2.34315C0.790176 3.84344 0 5.87827 0 8C0 10.1217 0.790176 12.1566 2.1967 13.6569C3.60322 15.1571 5.51088 16 7.5 16ZM8.4375 4C8.4375 3.73478 8.33873 3.48043 8.16291 3.29289C7.9871 3.10536 7.74864 3 7.5 3C7.25136 3 7.0129 3.10536 6.83709 3.29289C6.66127 3.48043 6.5625 3.73478 6.5625 4V8C6.56255 8.26519 6.66136 8.51951 6.83719 8.707L9.48844 11.536C9.57554 11.6289 9.67895 11.7026 9.79275 11.7529C9.90656 11.8032 10.0285 11.8291 10.1517 11.8291C10.2749 11.8291 10.3969 11.8032 10.5107 11.7529C10.6245 11.7026 10.7279 11.6289 10.815 11.536C10.9021 11.4431 10.9712 11.3328 11.0183 11.2114C11.0655 11.09 11.0897 10.9599 11.0897 10.8285C11.0897 10.6971 11.0655 10.567 11.0183 10.4456C10.9712 10.3242 10.9021 10.2139 10.815 10.121L8.4375 7.586V4Z" fill="#383463"/>
</svg>
